<svg width="24" height="28" viewBox="0 0 24 28" fill="none" xmlns="http://www.w3.org/2000/svg">
<path d="M21.3586 0H2.00829C0.900922 0 0 0.900922 0 2.00829V25.9918C0 27.0991 0.900922 28 2.00829 28H21.3586C22.466 28 23.3669 27.0991 23.3669 25.9917V2.00829C23.3669 0.900922 22.466 0 21.3586 0V0ZM22.2731 25.9917C22.2731 26.496 21.8629 26.9062 21.3586 26.9062H2.00829C1.50402 26.9062 1.09375 26.496 1.09375 25.9917V2.00829C1.09375 1.50402 1.50402 1.09375 2.00829 1.09375H21.3586C21.8629 1.09375 22.2732 1.50402 22.2732 2.00829V25.9917H22.2731Z" fill="white"/>
<path d="M7.63379 13.0388H3.92499C3.62295 13.0388 3.37811 13.2836 3.37811 13.5856V17.2711C3.37811 17.5731 3.62295 17.818 3.92499 17.818H7.63379C7.93582 17.818 8.18066 17.5731 8.18066 17.2711V13.5856C8.18066 13.2836 7.93582 13.0388 7.63379 13.0388ZM7.08691 16.7243H4.47186V14.1325H7.08691V16.7243Z" fill="white"/>
<path d="M7.63379 19.6358H3.92499C3.62295 19.6358 3.37811 19.8807 3.37811 20.1827V23.8681C3.37811 24.1701 3.62295 24.415 3.92499 24.415H7.63379C7.93582 24.415 8.18066 24.1701 8.18066 23.8681V20.1827C8.18066 19.8806 7.93582 19.6358 7.63379 19.6358ZM7.08691 23.3212H4.47186V20.7295H7.08691V23.3212Z" fill="white"/>
<path d="M13.5378 13.0388H9.82898C9.52694 13.0388 9.2821 13.2836 9.2821 13.5856V17.2711C9.2821 17.5731 9.52694 17.818 9.82898 17.818H13.5378C13.8398 17.818 14.0847 17.5731 14.0847 17.2711V13.5856C14.0847 13.2836 13.8398 13.0388 13.5378 13.0388ZM12.9909 16.7243H10.3759V14.1325H12.9909V16.7243Z" fill="white"/>
<path d="M13.5378 19.6358H9.82898C9.52694 19.6358 9.2821 19.8807 9.2821 20.1827V23.8681C9.2821 24.1701 9.52694 24.415 9.82898 24.415H13.5378C13.8398 24.415 14.0847 24.1701 14.0847 23.8681V20.1827C14.0847 19.8806 13.8398 19.6358 13.5378 19.6358ZM12.9909 23.3212H10.3759V20.7295H12.9909V23.3212Z" fill="white"/>
<path d="M19.442 13.0388H15.7332C15.4311 13.0388 15.1863 13.2836 15.1863 13.5856V23.8681C15.1863 24.1701 15.4311 24.415 15.7332 24.415H19.442C19.744 24.415 19.9888 24.1701 19.9888 23.8681V13.5856C19.9888 13.2836 19.744 13.0388 19.442 13.0388ZM18.8951 23.3212H16.28V14.1325H18.8951V23.3212Z" fill="white"/>
<path d="M19.4419 3.67816H3.92499C3.62295 3.67816 3.37811 3.92305 3.37811 4.22504V8.89945C3.37811 9.20143 3.62295 9.44633 3.92499 9.44633H9.21125C9.51329 9.44633 9.75812 9.20143 9.75812 8.89945C9.75812 8.59747 9.51329 8.35258 9.21125 8.35258H4.47186V4.77191H18.895V8.35258H14.1557C13.8536 8.35258 13.6088 8.59747 13.6088 8.89945C13.6088 9.20143 13.8536 9.44633 14.1557 9.44633H19.4419C19.7439 9.44633 19.9888 9.20143 19.9888 8.89945V4.22504C19.9888 3.923 19.7439 3.67816 19.4419 3.67816Z" fill="white"/>
<path d="M11.2388 9.20284C11.3638 9.39354 11.6062 9.48547 11.8266 9.4298C12.0443 9.37478 12.2115 9.18551 12.2366 8.96189C12.2622 8.73439 12.1405 8.51077 11.9351 8.40933C11.7277 8.30684 11.4705 8.34934 11.3067 8.51274C11.1242 8.69463 11.0962 8.98896 11.2388 9.20284Z" fill="white"/>
</svg>
