<svg width="20" height="20" viewBox="0 0 20 20" fill="none" xmlns="http://www.w3.org/2000/svg">
<path d="M9.99998 0.571411C15.206 0.571411 19.4286 4.79251 19.4286 9.99998C19.4286 15.2075 15.206 19.4286 9.99998 19.4286C4.79251 19.4286 0.571411 15.2075 0.571411 9.99998C0.571411 4.79251 4.79251 0.571411 9.99998 0.571411ZM9.99998 2.14284C5.66039 2.14284 2.14284 5.66039 2.14284 9.99998C2.14284 14.3396 5.66039 17.8571 9.99998 17.8571C14.3387 17.8571 17.8571 14.339 17.8571 9.99998C17.8571 5.66092 14.3387 2.14284 9.99998 2.14284ZM9.60713 5.28576C10.0411 5.28576 10.3928 5.63754 10.3928 6.07148V10.0814L14.2229 11.6287C14.6252 11.7912 14.8196 12.2491 14.6571 12.6515C14.4945 13.0538 14.0366 13.2482 13.6343 13.0857L9.31282 11.34C9.01584 11.22 8.82141 10.9317 8.82141 10.6114V6.07148C8.82141 5.63754 9.17319 5.28576 9.60713 5.28576Z" fill="#F2994A"/>
</svg>
