<svg width="14" height="14" viewBox="0 0 14 14" fill="none" xmlns="http://www.w3.org/2000/svg">
<path d="M0.944425 0.944425C1.25127 0.637584 1.74875 0.637584 2.05559 0.944425L7.00001 5.88822L11.9444 0.944425C12.2277 0.661188 12.6733 0.6394 12.9816 0.879062L13.0556 0.944425C13.3624 1.25127 13.3624 1.74875 13.0556 2.05559L8.11179 7.00001L13.0556 11.9444C13.3388 12.2277 13.3606 12.6733 13.121 12.9816L13.0556 13.0556C12.7488 13.3624 12.2513 13.3624 11.9444 13.0556L7.00001 8.11179L2.05559 13.0556C1.77235 13.3388 1.32667 13.3606 1.01844 13.121L0.944425 13.0556C0.637584 12.7488 0.637584 12.2513 0.944425 11.9444L5.88822 7.00001L0.944425 2.05559C0.661188 1.77235 0.6394 1.32667 0.879062 1.01844L0.944425 0.944425Z" fill="#546E7A"/>
</svg>
