<svg width="18" height="18" viewBox="0 0 18 18" fill="none" xmlns="http://www.w3.org/2000/svg">
<path d="M15.381 1.36965L16.627 2.61563C17.5475 3.53615 17.5475 5.02861 16.627 5.94913L14.5 8.07614L5.97214 16.604C5.30907 17.267 4.40978 17.6395 3.47209 17.6395H1.96783C1.07826 17.6395 0.357117 16.9184 0.357117 16.0288V14.5246C0.357117 13.5869 0.729656 12.6875 1.39278 12.0244L9.92083 3.49683L9.9205 3.49666L12.0475 1.36965C12.968 0.44913 14.4605 0.44913 15.381 1.36965ZM10.9643 4.67576L2.50391 13.1356C2.13551 13.504 1.92855 14.0036 1.92855 14.5246V16.0288C1.92855 16.0505 1.94613 16.0681 1.96783 16.0681H3.47209C3.99303 16.0681 4.49264 15.8612 4.86101 15.4928L13.3214 7.0329L10.9643 4.67576ZM13.1587 2.48082L12.1428 3.49666L14.5 5.85381L15.5158 4.83796C15.8227 4.53112 15.8227 4.03364 15.5158 3.72679L14.2698 2.48082C13.963 2.17398 13.4655 2.17398 13.1587 2.48082Z" fill="#546E7A"/>
</svg>
