<svg width="15" height="15" viewBox="0 0 15 15" fill="none" xmlns="http://www.w3.org/2000/svg">
<path d="M13.2209 0.757004L14.2403 1.77644C14.9935 2.52959 14.9935 3.7507 14.2403 4.50385L12.5 6.24413L5.5227 13.2215C4.98019 13.764 4.24441 14.0687 3.4772 14.0687H2.24645C1.51861 14.0687 0.928589 13.4787 0.928589 12.7509V11.5202C0.928589 10.7529 1.23339 10.0171 1.77595 9.47454L8.75345 2.49742L8.75317 2.49729L10.4935 0.757004C11.2466 0.00385016 12.4677 0.00385016 13.2209 0.757004ZM9.60716 3.462L2.68506 10.3837C2.38364 10.6851 2.2143 11.0939 2.2143 11.5202V12.7509C2.2143 12.7686 2.22869 12.783 2.24645 12.783H3.4772C3.90343 12.783 4.3122 12.6137 4.61359 12.3123L11.5357 5.39057L9.60716 3.462ZM11.4026 1.66614L10.5714 2.49729L12.5 4.42586L13.3312 3.59471C13.5822 3.34366 13.5822 2.93663 13.3312 2.68558L12.3117 1.66614C12.0607 1.41509 11.6536 1.41509 11.4026 1.66614Z" fill="#546E7A"/>
</svg>
