<svg width="24" height="20" viewBox="0 0 24 20" fill="none" xmlns="http://www.w3.org/2000/svg">
<path d="M6.12777 0L18.1765 0.00177622C19.7514 0.0208813 20.5731 0.196679 21.4253 0.652452C22.2514 1.09427 22.9057 1.74859 23.3475 2.57471C23.8318 3.48019 24 4.35117 24 6.12777V13.8722C24 15.6488 23.8318 16.5198 23.3475 17.4253C22.9057 18.2514 22.2514 18.9057 21.4253 19.3475C20.5198 19.8318 19.6488 20 17.8722 20H6.12777C4.35117 20 3.48019 19.8318 2.57471 19.3475C1.74859 18.9057 1.09427 18.2514 0.652452 17.4253C0.168194 16.5198 0 15.6488 0 13.8722L0.00177598 5.82346C0.0208811 4.24858 0.196679 3.42693 0.652452 2.57471C1.09427 1.74859 1.74859 1.09427 2.57471 0.652452C3.48019 0.168193 4.35117 0 6.12777 0ZM21.6872 3.72802L14.8284 10.5858C13.3184 12.0958 10.9014 12.1461 9.33095 10.7368L9.17157 10.5858L2.31283 3.72802C2.08341 4.24279 2 4.8316 2 6.12777V13.8722C2 15.3469 2.10796 15.906 2.41608 16.4821C2.67149 16.9597 3.04032 17.3285 3.51791 17.5839C4.02626 17.8558 4.52132 17.9718 5.6438 17.9954L6.12777 18H17.8722C19.3469 18 19.906 17.892 20.4821 17.5839C20.9597 17.3285 21.3285 16.9597 21.5839 16.4821C21.8558 15.9737 21.9718 15.4787 21.9954 14.3562L22 13.8722V6.12777C22 4.8316 21.9166 4.24279 21.6872 3.72802ZM17.8722 2H6.12777C4.8316 2 4.24279 2.08341 3.72802 2.31283L10.5858 9.17157C11.3257 9.91151 12.5012 9.95046 13.287 9.28841L13.4142 9.17157L20.272 2.31283C19.7572 2.08341 19.1684 2 17.8722 2Z" fill="#546E7A"/>
</svg>
