<svg width="23" height="22" viewBox="0 0 23 22" fill="none" xmlns="http://www.w3.org/2000/svg">
<path d="M14.1117 14.259L13.3776 14.9931C13.1815 15.1894 12.8892 15.254 12.6287 15.1585C11.8986 14.8901 10.9853 14.2085 9.88864 13.1117C8.79301 12.016 8.11047 11.1026 7.84301 10.3715C7.74731 10.1111 7.81148 9.81883 8.00745 9.6225L8.74249 8.88839C10.0967 7.5341 10.2205 5.40113 9.0268 3.98542L8.16496 2.96103C7.18127 1.79101 5.40905 1.67312 4.20545 2.69651C3.75782 3.08229 3.42131 3.5806 3.23068 4.13997C3.14829 4.38346 3.09509 4.63587 3.07218 4.89191C2.63135 8.16419 4.20941 11.5989 7.80536 15.1952C11.4013 18.7914 14.8348 20.3686 18.1078 19.9278C18.9581 19.8466 19.7444 19.4407 20.303 18.7944C21.3273 17.5917 21.2085 15.8183 20.0395 14.8346L19.0152 13.9717C17.5976 12.7799 15.4658 12.9047 14.1117 14.259ZM11.3029 11.6976C11.8267 12.2215 12.2835 12.6188 12.6528 12.8894C14.7761 10.766 18.0799 10.5724 20.3038 12.4421L21.3273 13.3044C23.3566 15.0122 23.5595 18.0553 21.8161 20.1023C20.9208 21.138 19.6607 21.7886 18.3748 21.9099C14.3927 22.4462 10.3881 20.6067 6.39109 16.6093C2.394 12.6119 0.553746 8.60615 1.08014 4.71368C1.11714 4.30007 1.20309 3.89231 1.33759 3.49481C1.64309 2.59838 2.18239 1.79977 2.90991 1.17284C4.94717 -0.559392 7.98872 -0.356467 9.69537 1.67346L10.5558 2.69618C12.428 4.91652 12.2362 8.22299 10.1558 10.3035C10.3817 10.7169 10.7789 11.1735 11.3029 11.6976Z" fill="#546E7A"/>
</svg>
