<svg width="23" height="22" viewBox="0 0 23 22" fill="none" xmlns="http://www.w3.org/2000/svg">
<path d="M14.1117 14.259L13.3776 14.9931C13.1815 15.1894 12.8893 15.254 12.6287 15.1586C11.8986 14.8901 10.9853 14.2085 9.88867 13.1118C8.79304 12.016 8.11051 11.1026 7.84304 10.3715C7.74734 10.1111 7.81151 9.81885 8.00748 9.62251L8.74252 8.88841C10.0967 7.53412 10.2205 5.40114 9.02683 3.98543L8.16499 2.96104C7.1813 1.79103 5.40908 1.67313 4.20548 2.69653C3.75785 3.08231 3.42134 3.58062 3.23071 4.13998C3.14832 4.38347 3.09512 4.63589 3.07221 4.89192C2.63138 8.1642 4.20944 11.599 7.80539 15.1952C11.4013 18.7914 14.8348 20.3686 18.1078 19.9278C18.9582 19.8466 19.7444 19.4407 20.3031 18.7944C21.3274 17.5917 21.2085 15.8184 20.0396 14.8346L19.0153 13.9717C17.5977 12.7799 15.4659 12.9047 14.1117 14.259ZM11.3029 11.6976C11.8268 12.2215 12.2836 12.6188 12.6528 12.8894C14.7761 10.766 18.08 10.5724 20.3038 12.4421L21.3274 13.3044C23.3566 15.0122 23.5596 18.0553 21.8161 20.1023C20.9209 21.138 19.6607 21.7886 18.3748 21.9099C14.3927 22.4463 10.3881 20.6067 6.39112 16.6094C2.39403 12.6119 0.553777 8.60617 1.08017 4.71369C1.11717 4.30008 1.20312 3.89233 1.33762 3.49482C1.64312 2.59839 2.18243 1.79979 2.90994 1.17286C4.9472 -0.559379 7.98875 -0.356453 9.6954 1.67347L10.5558 2.6962C12.428 4.91653 12.2362 8.223 10.1558 10.3035C10.3818 10.7169 10.7789 11.1735 11.3029 11.6976Z" fill="#546E7A"/>
</svg>
