<svg width="14" height="14" viewBox="0 0 14 14" fill="none" xmlns="http://www.w3.org/2000/svg">
<path d="M13.3001 0.699999C12.9135 0.3134 12.2867 0.3134 11.9001 0.699999L7.00011 5.6L2.10011 0.699999C1.71351 0.3134 1.08671 0.3134 0.700106 0.699999C0.313506 1.0866 0.313506 1.7134 0.700106 2.1L5.60011 7L0.700106 11.9C0.313506 12.2866 0.313506 12.9134 0.700106 13.3C1.08671 13.6866 1.71351 13.6866 2.10011 13.3L7.00011 8.4L11.9001 13.3C12.2867 13.6866 12.9135 13.6866 13.3001 13.3C13.6867 12.9134 13.6867 12.2866 13.3001 11.9L8.40011 7L13.3001 2.1C13.6867 1.7134 13.6867 1.0866 13.3001 0.699999Z" fill="#818C99"/>
</svg>
