<svg width="18" height="18" viewBox="0 0 18 18" fill="none" xmlns="http://www.w3.org/2000/svg">
<path d="M11.4132 0.428558C11.8868 0.428558 12.341 0.616696 12.6759 0.951582L17.0483 5.32395C17.3832 5.65884 17.5713 6.11304 17.5713 6.58664V11.4133C17.5713 11.8869 17.3832 12.3411 17.0483 12.676L12.6759 17.0484C12.341 17.3833 11.8868 17.5714 11.4132 17.5714H6.58655C6.11295 17.5714 5.65875 17.3833 5.32386 17.0484L0.95149 12.676C0.616604 12.3411 0.428467 11.8869 0.428467 11.4133V6.58664C0.428467 6.11304 0.616604 5.65884 0.95149 5.32395L5.32386 0.951582C5.65875 0.616696 6.11295 0.428558 6.58655 0.428558H11.4132ZM11.4132 1.85713H6.58655C6.49183 1.85713 6.40099 1.89476 6.33401 1.96173L1.96164 6.33411C1.89467 6.40108 1.85704 6.49192 1.85704 6.58664V11.4133C1.85704 11.508 1.89467 11.5989 1.96164 11.6659L6.33401 16.0382C6.40099 16.1052 6.49183 16.1428 6.58655 16.1428H11.4132C11.508 16.1428 11.5988 16.1052 11.6658 16.0382L16.0381 11.6659C16.1051 11.5989 16.1428 11.508 16.1428 11.4133V6.58664C16.1428 6.49192 16.1051 6.40108 16.0381 6.33411L11.6658 1.96173C11.5988 1.89476 11.508 1.85713 11.4132 1.85713ZM8.9999 11.0001L9.0876 11.0045C9.51978 11.0484 9.85704 11.4134 9.85704 11.8571C9.85704 12.3305 9.47332 12.7142 8.99997 12.7142L8.91226 12.7098C8.48008 12.6659 8.14283 12.3009 8.14283 11.8571C8.14283 11.3838 8.52655 11.0001 8.9999 11.0001ZM8.9999 4.71427C9.39438 4.71427 9.71418 5.03407 9.71418 5.42856V8.99999C9.71418 9.39448 9.39438 9.71427 8.9999 9.71427C8.60541 9.71427 8.28561 9.39448 8.28561 8.99999V5.42856C8.28561 5.03407 8.60541 4.71427 8.9999 4.71427Z" fill="#E95753"/>
</svg>
