<svg width="22" height="23" viewBox="0 0 22 23" fill="none" xmlns="http://www.w3.org/2000/svg">
<path d="M11 8.125C11.4461 8.125 11.8142 8.4588 11.8682 8.89024L11.875 9V20.071L14.4398 17.8278C14.8111 17.5184 15.3628 17.5686 15.6722 17.9398C15.9558 18.2801 15.9373 18.7721 15.6463 19.09L15.5602 19.1722L11.5602 22.6722L11.528 22.698C11.5132 22.7092 11.4981 22.7199 11.4828 22.7301L11.5602 22.6722C11.518 22.7073 11.4735 22.7378 11.4273 22.7637C11.4137 22.7715 11.4003 22.7785 11.3867 22.7852C11.3637 22.7965 11.34 22.8069 11.3159 22.8162C11.3054 22.8202 11.2947 22.8241 11.2839 22.8278C11.2617 22.8355 11.2393 22.8422 11.2167 22.8479C11.2015 22.8517 11.1857 22.8553 11.1699 22.8584C11.1494 22.8626 11.129 22.8658 11.1086 22.8683C11.0912 22.8704 11.0738 22.8721 11.0563 22.8732C11.038 22.8744 11.0193 22.875 11.0007 22.875C10.9813 22.875 10.9623 22.8744 10.9433 22.8732C10.9262 22.8721 10.9088 22.8704 10.8914 22.8682C10.871 22.8658 10.8506 22.8626 10.8304 22.8586C10.8143 22.8553 10.7985 22.8517 10.7829 22.8477C10.7607 22.8422 10.7383 22.8355 10.7161 22.8279C10.7053 22.8241 10.6946 22.8202 10.684 22.8161C10.66 22.8069 10.6363 22.7965 10.613 22.785C10.5997 22.7785 10.5863 22.7715 10.5731 22.7641C10.5265 22.7378 10.482 22.7073 10.4398 22.6722L10.5172 22.7301C10.5019 22.7199 10.4868 22.7092 10.472 22.698L10.4398 22.6722L6.43984 19.1722L6.35374 19.09C6.06273 18.7721 6.04422 18.2801 6.32781 17.9398C6.63718 17.5686 7.18892 17.5184 7.56016 17.8278L10.125 20.071V9C10.125 8.51675 10.5168 8.125 11 8.125ZM13.0833 0C16.5501 0 19.3748 2.74929 19.4959 6.18652L19.5 6.4L19.5663 6.43564C20.9791 7.22435 21.9191 8.69965 21.995 10.3651L22 10.5833C22 13.051 20.1142 15.0913 17.6461 15.3143L17.4268 15.3293L15.0003 15.33C14.448 15.3302 14.0002 14.8826 14 14.3303C13.9998 13.8175 14.3858 13.3947 14.8831 13.3368L14.9997 13.33L17.3802 13.3303C18.8428 13.2625 20 12.0538 20 10.5833C20 9.39853 19.2438 8.3582 18.1417 7.9816C17.6973 7.82973 17.4184 7.38903 17.4715 6.92235C17.4904 6.7555 17.5 6.58678 17.5 6.41667C17.5 3.97741 15.5226 2 13.0833 2C11.7256 2 10.4712 2.61525 9.63887 3.65367C9.3488 4.01556 8.84796 4.1305 8.42912 3.93131C8.06435 3.75783 7.66465 3.66667 7.25 3.66667C5.73122 3.66667 4.5 4.89788 4.5 6.41667C4.5 6.56936 4.51235 6.71905 4.53665 6.86429C4.61767 7.34848 4.33523 7.81988 3.87007 7.97683C2.7617 8.35082 2 9.39426 2 10.5833C2 12.0459 3.1417 13.2417 4.58195 13.3283L4.74941 13.3333L6.99941 13.332C7.55169 13.3317 7.99967 13.7791 8 14.3314C8.0003 14.8442 7.61451 15.2671 7.11721 15.3252L7.00059 15.332L4.75 15.3333C2.12665 15.3333 0 13.2067 0 10.5833C0 8.82306 0.966201 7.24802 2.44855 6.4269L2.5 6.399L2.50489 6.19924C2.61528 3.74888 4.58221 1.78195 7.03257 1.67155L7.25 1.66667C7.6067 1.66667 7.95828 1.70618 8.29966 1.78325L8.572 1.854L8.60581 1.82105C9.72492 0.728687 11.2145 0.0716595 12.8155 0.00552464L13.0833 0Z" fill="#3F8AE0"/>
</svg>
